<svg width="16" height="16" viewBox="0 0 16 16" fill="none" xmlns="http://www.w3.org/2000/svg">
<path d="M7.99998 0C3.58172 0 0 3.58172 0 7.99998C0 12.4183 3.58172 16 7.99998 16C12.4183 16 16 12.4183 16 7.99998C15.9953 3.58369 12.4163 0.00472098 7.99998 0ZM7.99998 14.8571C4.21289 14.8571 1.14285 11.7871 1.14285 7.99998C1.14285 4.21289 4.21289 1.14285 7.99998 1.14285C11.7871 1.14285 14.8571 4.21289 14.8571 7.99998C14.853 11.7854 11.7854 14.853 7.99998 14.8571Z" fill="white"/>
<path d="M11.3691 7.74523C11.3137 7.63414 11.2236 7.54407 11.1125 7.48869L6.54111 5.20297C6.25879 5.06191 5.9156 5.17638 5.7745 5.4587C5.73483 5.53809 5.7142 5.62565 5.71423 5.71441V10.2859C5.7141 10.6015 5.9698 10.8574 6.28541 10.8576C6.37417 10.8576 6.46172 10.837 6.54111 10.7973L11.1125 8.51157C11.395 8.37081 11.5099 8.02769 11.3691 7.74523ZM6.85711 9.36128V6.63898L9.57941 8.00013L6.85711 9.36128Z" fill="white"/>
</svg>
