<svg width="16" height="16" viewBox="0 0 16 16" fill="none" xmlns="http://www.w3.org/2000/svg">
<path d="M15.0624 0.937688C14.4577 0.333 13.6538 0 12.7987 0C11.9436 0 11.1397 0.333 10.535 0.937656L1.5883 9.88441C1.51218 9.96053 1.45702 10.055 1.42815 10.1587L0.0228983 15.2074C-0.0376954 15.4252 0.0239608 15.6587 0.184242 15.8181C0.302992 15.9362 0.462117 16 0.625055 16C0.681992 16 0.73943 15.9922 0.795773 15.9762L5.84443 14.5421C6.05743 14.4816 6.22256 14.3129 6.27843 14.0986C6.33431 13.8843 6.27262 13.6565 6.11627 13.4996L2.9334 10.3071L10.3495 2.89097L13.1076 5.64903L7.43024 11.3109C7.18584 11.5546 7.18531 11.9503 7.42906 12.1947C7.67277 12.4392 8.06856 12.4397 8.31293 12.196L15.0623 5.46497C15.667 4.86031 16 4.05641 16 3.20131C16 2.34622 15.667 1.54231 15.0624 0.937688ZM4.48109 13.6299L1.52584 14.4694L2.35349 11.4959L4.48109 13.6299ZM14.1791 4.58047L13.9927 4.76638L11.2334 2.00709L11.419 1.82153C11.7875 1.45297 12.2775 1.25 12.7987 1.25C13.3199 1.25 13.8099 1.45297 14.1785 1.82156C14.547 2.19009 14.75 2.68009 14.75 3.20131C14.75 3.72253 14.547 4.21253 14.1791 4.58047Z" fill="#696969"/>
</svg>
