<svg width="15" height="15" viewBox="0 0 15 15" fill="none" xmlns="http://www.w3.org/2000/svg">
<path d="M7.5 0C3.36425 0 0 3.36425 0 7.5C0 11.6358 3.36425 15 7.5 15C11.6358 15 15 11.6352 15 7.5C15 3.36483 11.6358 0 7.5 0ZM7.5 13.8381C4.00562 13.8381 1.16188 10.995 1.16188 7.5C1.16188 4.00503 4.00562 1.16188 7.5 1.16188C10.9944 1.16188 13.8381 4.00503 13.8381 7.5C13.8381 10.995 10.995 13.8381 7.5 13.8381Z" fill="#696969"/>
<path d="M10.4048 6.86676H8.08098V4.54299C8.08098 4.22231 7.8213 3.96204 7.50003 3.96204C7.17876 3.96204 6.91907 4.22231 6.91907 4.54299V6.86676H4.5953C4.27403 6.86676 4.01434 7.12704 4.01434 7.44772C4.01434 7.7684 4.27403 8.02868 4.5953 8.02868H6.91907V10.3524C6.91907 10.6731 7.17876 10.9334 7.50003 10.9334C7.8213 10.9334 8.08098 10.6731 8.08098 10.3524V8.02868H10.4048C10.726 8.02868 10.9857 7.7684 10.9857 7.44772C10.9857 7.12704 10.726 6.86676 10.4048 6.86676Z" fill="#696969"/>
</svg>
