<svg width="20" height="20" viewBox="0 0 20 20" fill="none" xmlns="http://www.w3.org/2000/svg">
<path d="M4.27391 3.48017H0.58823C0.263319 3.48017 0 3.21668 0 2.89194C0 2.56721 0.263319 2.30371 0.58823 2.30371H4.27391C4.59882 2.30371 4.86214 2.56721 4.86214 2.89194C4.86214 3.21668 4.59882 3.48017 4.27391 3.48017Z" fill="#0061DF"/>
<path d="M6.37994 5.58609C4.8942 5.58609 3.68555 4.37743 3.68555 2.89183C3.68555 1.40592 4.8942 0.197266 6.37994 0.197266C7.86567 0.197266 9.07433 1.40592 9.07433 2.89183C9.07433 4.37748 7.86567 5.58609 6.37994 5.58609ZM6.37994 1.37377C5.54293 1.37377 4.86201 2.05483 4.86201 2.89183C4.86201 3.72884 5.54293 4.40959 6.37994 4.40959C7.21694 4.40959 7.89787 3.72884 7.89787 2.89183C7.89787 2.05483 7.21694 1.37377 6.37994 1.37377Z" fill="#0061DF"/>
<path d="M19.4121 3.48017H10.6205C10.2955 3.48017 10.0322 3.21668 10.0322 2.89194C10.0322 2.56721 10.2955 2.30371 10.6205 2.30371H19.4121C19.737 2.30371 20.0003 2.56721 20.0003 2.89194C20.0003 3.21668 19.7371 3.48017 19.4121 3.48017Z" fill="#0061DF"/>
<path d="M14.2784 12.6942C12.7926 12.6942 11.584 11.4855 11.584 9.99992C11.584 8.51432 12.7926 7.30566 14.2784 7.30566C15.7641 7.30566 16.9728 8.51432 16.9728 9.99992C16.9728 11.4855 15.7642 12.6942 14.2784 12.6942ZM14.2784 8.48217C13.4414 8.48217 12.7604 9.16291 12.7604 9.99992C12.7604 10.8369 13.4414 11.5177 14.2784 11.5177C15.1154 11.5177 15.7963 10.8369 15.7963 9.99992C15.7963 9.16291 15.1154 8.48217 14.2784 8.48217Z" fill="#0061DF"/>
<path d="M10.0382 10.5886H0.58823C0.263319 10.5886 0 10.3251 0 10.0003C0 9.6756 0.263319 9.41211 0.58823 9.41211H10.0382C10.3631 9.41211 10.6264 9.6756 10.6264 10.0003C10.6264 10.3251 10.3631 10.5886 10.0382 10.5886Z" fill="#0061DF"/>
<path d="M19.4117 10.5886H16.3841C16.0592 10.5886 15.7959 10.3251 15.7959 10.0003C15.7959 9.6756 16.0592 9.41211 16.3841 9.41211H19.4117C19.7366 9.41211 19.9999 9.6756 19.9999 10.0003C19.9999 10.3251 19.7366 10.5886 19.4117 10.5886Z" fill="#0061DF"/>
<path d="M5.72174 19.8029C4.236 19.8029 3.02734 18.5942 3.02734 17.1083C3.02734 15.6227 4.236 14.4141 5.72174 14.4141C7.20747 14.4141 8.41613 15.6227 8.41613 17.1083C8.41613 18.5942 7.20747 19.8029 5.72174 19.8029ZM5.72174 15.5906C4.88473 15.5906 4.2038 16.2713 4.2038 17.1083C4.2038 17.9453 4.88473 18.6264 5.72174 18.6264C6.55874 18.6264 7.23967 17.9453 7.23967 17.1083C7.23967 16.2713 6.55874 15.5906 5.72174 15.5906Z" fill="#0061DF"/>
<path d="M19.4122 17.696H9.96225C9.63734 17.696 9.37402 17.4325 9.37402 17.1078C9.37402 16.783 9.63734 16.5195 9.96225 16.5195H19.4122C19.7371 16.5195 20.0004 16.783 20.0004 17.1078C20.0004 17.4325 19.7371 17.696 19.4122 17.696Z" fill="#0061DF"/>
<path d="M3.61581 17.696H0.58823C0.263319 17.696 0 17.4325 0 17.1078C0 16.783 0.263319 16.5195 0.58823 16.5195H3.61581C3.94072 16.5195 4.20404 16.783 4.20404 17.1078C4.20404 17.4325 3.94072 17.696 3.61581 17.696Z" fill="#0061DF"/>
</svg>
