<svg width="14" height="14" viewBox="0 0 14 14" fill="none" xmlns="http://www.w3.org/2000/svg">
<path d="M11.1016 9.07812C10.2912 9.07812 9.57116 9.47193 9.12248 10.0781L5.25962 8.10403C5.32443 7.88386 5.35938 7.65103 5.35938 7.41016C5.35938 7.08392 5.29542 6.77239 5.17962 6.48722L9.22813 4.05478C9.67985 4.58497 10.3521 4.92188 11.1016 4.92188C12.4585 4.92188 13.5625 3.8179 13.5625 2.46094C13.5625 1.10398 12.4585 0 11.1016 0C9.7446 0 8.64062 1.10398 8.64062 2.46094C8.64062 2.77457 8.69971 3.07461 8.80715 3.3507L4.74852 5.78922C4.29712 5.27466 3.63511 4.94922 2.89844 4.94922C1.54148 4.94922 0.4375 6.0532 0.4375 7.41016C0.4375 8.76712 1.54148 9.87109 2.89844 9.87109C3.72209 9.87109 4.45244 9.46433 4.89937 8.84116L8.75101 10.8095C8.67929 11.0401 8.64062 11.2851 8.64062 11.5391C8.64062 12.896 9.7446 14 11.1016 14C12.4585 14 13.5625 12.896 13.5625 11.5391C13.5625 10.1821 12.4585 9.07812 11.1016 9.07812ZM11.1016 0.820312C12.0062 0.820312 12.7422 1.5563 12.7422 2.46094C12.7422 3.36558 12.0062 4.10156 11.1016 4.10156C10.1969 4.10156 9.46094 3.36558 9.46094 2.46094C9.46094 1.5563 10.1969 0.820312 11.1016 0.820312ZM2.89844 9.05078C1.9938 9.05078 1.25781 8.3148 1.25781 7.41016C1.25781 6.50552 1.9938 5.76953 2.89844 5.76953C3.80308 5.76953 4.53906 6.50552 4.53906 7.41016C4.53906 8.3148 3.80308 9.05078 2.89844 9.05078ZM11.1016 13.1797C10.1969 13.1797 9.46094 12.4437 9.46094 11.5391C9.46094 10.6344 10.1969 9.89844 11.1016 9.89844C12.0062 9.89844 12.7422 10.6344 12.7422 11.5391C12.7422 12.4437 12.0062 13.1797 11.1016 13.1797Z" fill="#696969"/>
</svg>
